<?xml version="1.0" encoding="UTF-8"?>
<svg id="Artwork" xmlns="http://www.w3.org/2000/svg" xmlns:xlink="http://www.w3.org/1999/xlink" viewBox="0 0 160 160">
  <defs>
    <style>
      .cls-1 {
        mask: url(#mask);
      }

      .cls-2 {
        fill: url(#linear-gradient-3);
      }

      .cls-3 {
        fill: url(#linear-gradient-2);
      }

      .cls-4 {
        fill: url(#linear-gradient);
      }

      .cls-5 {
        fill: #fff;
      }
    </style>
    <linearGradient id="linear-gradient" x1="1023.49" y1="-10427.81" x2="1134.36" y2="-10538.68" gradientTransform="translate(1158.93 -10403.25) rotate(-180)" gradientUnits="userSpaceOnUse">
      <stop offset="0" stop-color="#f2681d"/>
      <stop offset="1" stop-color="#f89863"/>
    </linearGradient>
    <linearGradient id="linear-gradient-2" x1="-1320.91" y1="-116.53" x2="-1180.26" y2="-116.53" gradientTransform="translate(1046.7 -721.9) rotate(-45)" xlink:href="#linear-gradient"/>
    <linearGradient id="linear-gradient-3" x1="-13.5" y1="174.98" x2="163.35" y2="-1.86" gradientTransform="translate(83.15 -27.63) rotate(45)" gradientUnits="userSpaceOnUse">
      <stop offset=".11" stop-color="#000"/>
      <stop offset=".13" stop-color="#050505"/>
      <stop offset=".15" stop-color="#131313"/>
      <stop offset=".18" stop-color="#2c2c2c"/>
      <stop offset=".21" stop-color="#4e4e4e"/>
      <stop offset=".24" stop-color="#7a7a7a"/>
      <stop offset=".27" stop-color="#afafaf"/>
      <stop offset=".3" stop-color="#ededed"/>
      <stop offset=".31" stop-color="#fff"/>
      <stop offset=".41" stop-color="#fff"/>
      <stop offset=".75" stop-color="#fff"/>
      <stop offset=".81" stop-color="#fff"/>
      <stop offset=".82" stop-color="#f7f7f7"/>
      <stop offset=".83" stop-color="#e3e3e3"/>
      <stop offset=".85" stop-color="#c1c1c1"/>
      <stop offset=".87" stop-color="#939393"/>
      <stop offset=".88" stop-color="#585858"/>
      <stop offset=".9" stop-color="#101010"/>
      <stop offset=".91" stop-color="#000"/>
    </linearGradient>
    <mask id="mask" x="-220.31" y="-220.31" width="600.61" height="600.61" maskUnits="userSpaceOnUse">
      <g>
        <rect class="cls-2" x="-50.12" y="31.18" width="250.09" height="110.77" transform="translate(-39.26 78.33) rotate(-45)"/>
        <g>
          <path class="cls-5" d="M80,265.31c-102.18,0-185.31-83.13-185.31-185.31S-22.18-105.31,80-105.31,265.31-22.18,265.31,80s-83.13,185.31-185.31,185.31Z"/>
          <path d="M80,9.69c38.83,0,70.31,31.48,70.31,70.31s-31.48,70.31-70.31,70.31S9.69,118.83,9.69,80,41.17,9.69,80,9.69M80-220.31c-40.44,0-79.79,7.97-116.96,23.69-35.79,15.14-67.88,36.76-95.39,64.26-27.51,27.51-49.13,59.6-64.26,95.39-15.72,37.17-23.69,76.52-23.69,116.96s7.97,79.79,23.69,116.96c15.14,35.79,36.76,67.88,64.26,95.39,27.51,27.51,59.6,49.13,95.39,64.26,37.17,15.72,76.52,23.69,116.96,23.69s79.79-7.97,116.96-23.69c35.79-15.14,67.88-36.76,95.39-64.26s49.13-59.6,64.26-95.39c15.72-37.17,23.69-76.52,23.69-116.96s-7.97-79.79-23.69-116.96c-15.14-35.79-36.76-67.88-64.26-95.39-27.51-27.51-59.6-49.13-95.39-64.26-37.17-15.72-76.52-23.69-116.96-23.69h0Z"/>
        </g>
      </g>
    </mask>
  </defs>
  <g id="Logomark">
    <g id="Logo_BG" data-name="Logo BG">
      <circle class="cls-4" cx="80" cy="80" r="78.4"/>
      <path id="bg" class="cls-3" d="M80,9.67c-38.84,0-70.33,31.48-70.33,70.33,0,35.42,26.19,64.73,60.28,69.6,1.32.2,2.66.35,4.02.46,1.33.12,2.67.19,4.02.23.67.02,1.34.03,2.01.03s1.34,0,2.01-.03c1.35-.03,2.69-.11,4.02-.23,1.35-.11,2.69-.26,4.02-.45,34.08-4.87,60.28-34.18,60.28-69.61,0-38.85-31.49-70.33-70.33-70.33Z"/>
    </g>
    <g class="cls-1">
      <path id="Logo_Rocket" data-name="Logo Rocket" class="cls-5" d="M59.68,108.85l-24.96,24.96c1.03.88,2.09,1.72,3.16,2.52l24.64-24.64-2.84-2.84ZM48.31,97.48l-24.63,24.63c.79,1.07,1.64,2.13,2.52,3.17l24.96-24.95-2.84-2.84ZM59.59,97.57l-30.72,30.72c.46.49.93.97,1.4,1.44s.96.94,1.44,1.4l30.72-30.72-2.84-2.84ZM115.23,44.78c-4.53-1.24-10.26-.38-16.2,2.3-5.25,2.36-10.66,6.14-15.54,11.15-2.2,2.25-4.15,4.61-5.83,7l-9.59,1.17-10.69,13.83,10.05,2.6c-.57,2.29-.84,4.5-.8,6.55l-2.53,3.29,3.25,3.25,3.28-2.52c2.06.04,4.26-.23,6.55-.8l2.6,10.05,13.81-10.68,1.16-9.6c2.4-1.69,4.77-3.64,7.03-5.85,5.01-4.89,8.8-10.31,11.16-15.57,2.67-5.93,3.52-11.66,2.29-16.18ZM96.09,72.78c-3.02,3.02-7.45,3.49-9.9,1.04-2.44-2.44-1.98-6.88,1.04-9.9,3.01-3.01,7.45-3.48,9.89-1.03,2.44,2.44,1.98,6.88-1.03,9.89Z"/>
    </g>
  </g>
</svg>